<svg xmlns="http://www.w3.org/2000/svg"
     xmlns:xlink="http://www.w3.org/1999/xlink"
     version="1.1"
     x="0px"
     y="0px"
     viewBox="0 0 91 113.75"
     style="enable-background:new 0 0 91 91;"
     xml:space="preserve"><g><polygon points="47.2,59.9 4.2,59.9 4.2,18.5 82.3,18.5 82.3,48.5 85.5,48.5 85.5,15.3 1.1,15.3 1.1,63.1 47.2,63.1  "/><rect x="62.7" y="37.6" width="16.8" height="3.2"/><rect x="62.7" y="30.7" width="12.5" height="3.2"/><rect x="62.7" y="44.5" width="12.5" height="3.2"/><rect x="7.1" y="37.6" width="16.8" height="3.2"/><rect x="11.4" y="44.5" width="12.5" height="3.2"/><rect x="11.4" y="30.7" width="12.5" height="3.2"/><path d="M26.4,39.2c0,9.3,7.6,16.9,16.9,16.9c9.3,0,16.9-7.6,16.9-16.9c0-9.3-7.6-16.9-16.9-16.9C34,22.3,26.4,29.9,26.4,39.2z    M57,39.2c0,7.6-6.2,13.7-13.7,13.7c-7.6,0-13.7-6.2-13.7-13.7c0-7.6,6.2-13.7,13.7-13.7C50.8,25.5,57,31.6,57,39.2z"/><path d="M41.6,26.5v2.2c-2.4,0.1-4.3,2.1-4.3,4.5v2c0,1,0.4,2.4,2.4,3.7l0.9,0.3l0,0l1,0.4v5.5c-0.7-0.1-1.2-0.6-1.2-1.3v-0.9h-3.2   v0.9c0,2.4,1.9,4.4,4.3,4.5v2.3h3.2v-2.4c2.2-0.3,4-2.2,4-4.5v-2c0-1-0.4-2.4-2.5-3.7l-0.7-0.3l0,0l-0.8-0.3v-5.5   c0.5,0.2,0.8,0.7,0.8,1.2v0.9h3.2v-0.9c0-2.3-1.7-4.2-4-4.5v-2.3H41.6z M40.5,33.3c0-0.7,0.5-1.2,1.2-1.3v4.4l-0.3-0.1   c-0.6-0.4-0.8-0.8-0.8-0.9V33.3z M45.6,43.9c0,0.5-0.3,1-0.8,1.2V41c0.6,0.4,0.8,0.8,0.8,0.9V43.9z"/><rect x="9.6" y="8.5" width="67.3" height="3.2"/><rect x="14.5" y="2.4" width="57.4" height="3.2"/><path d="M70.7,51.5c-10.7,0-19.1,4.5-19.1,10.3c0,5.8,8.4,10.3,19.1,10.3c10.7,0,19.1-4.5,19.1-10.3C89.8,56,81.4,51.5,70.7,51.5z    M72.3,63.4l0.6,0.1c0.4,0.1,0.6,0.2,0.8,0.3v0.4c-0.2,0.1-0.7,0.3-1.4,0.4V63.4z M68.1,59.4c-0.3-0.1-0.6-0.2-0.7-0.3v-0.4   c0.3-0.2,0.9-0.4,1.8-0.4v1.2L68.1,59.4z M70.7,69c-9.4,0-15.9-3.8-15.9-7.2c0-3.2,5.8-6.7,14.3-7.1v0.5c-2.9,0-5,1.4-5,3.3v1.2   c0,1.9,2.3,2.6,3,2.8l0.9,0.2l0,0l1.1,0.2v1.8c-0.9,0-1.5-0.2-1.8-0.4V64h-3.2v0.5c0,1.9,2.1,3.3,5,3.3v0.6h3.2v-0.7   c2.6-0.1,4.5-1.5,4.5-3.3v-1.2c0-1.9-2.3-2.6-3.1-2.9l-0.6-0.1l0,0l-0.8-0.2v-1.8c0.7,0.1,1.2,0.2,1.4,0.4V59h3.2v-0.5   c0-1.8-1.9-3.1-4.5-3.3v-0.5c8.5,0.4,14.4,3.9,14.4,7.1C86.6,65.2,80.1,69,70.7,69z"/><path d="M70.7,77.2c-9.4,0-15.9-3.8-15.9-7.2h-3.2c0,5.8,8.4,10.3,19.1,10.3c10.7,0,19.1-4.5,19.1-10.3h-3.2   C86.6,73.4,80.1,77.2,70.7,77.2z"/><path d="M70.7,85c-9.4,0-15.9-3.8-15.9-7.2h-3.2c0,5.8,8.4,10.3,19.1,10.3c10.7,0,19.1-4.5,19.1-10.3h-3.2   C86.6,81.2,80.1,85,70.7,85z"/></g></svg>
