<svg xmlns="http://www.w3.org/2000/svg"
     xmlns:xlink="http://www.w3.org/1999/xlink"
     version="1.1"
     x="0px"
     y="0px"
     viewBox="0 0 91 113.75"
     style="enable-background:new 0 0 91 91;"
     xml:space="preserve"><g><path d="M17,37.8c-0.4,3.6,0.3,6.5,2.2,8.7c3.3,3.8,9,3.8,9.3,3.8c0,0,0,0,0,0h17.8c0,0,0,0,0,0c0.3,0,5.9-0.1,9.3-3.8   c1.9-2.2,2.7-5.1,2.2-8.7c-1.4-11.3-11.9-20.6-15-22.5l5.1-4.7c0.2-0.2,0.3-0.4,0.4-0.6c0.7-1.7-0.1-3.6-1.8-4.3L44.7,5   c-0.2-1.8-1.7-3.2-3.5-3.2h-7.5c-1.8,0-3.3,1.4-3.5,3.2l-1.8,0.7c-1.7,0.7-2.5,2.6-1.8,4.3c0.1,0.2,0.2,0.4,0.4,0.6l5.1,4.7   C28.9,17.2,18.4,26.5,17,37.8z M29.5,8.6l1.8-0.7l1.4,2.6l2.8-1.5l-2.1-3.8l-0.1,0l0-0.1C33.4,5.1,33.5,5,33.7,5h7.5   c0.2,0,0.3,0.1,0.3,0.2l0,0.1l-2,3.7l2.8,1.5L43.6,8l1.7,0.7c0,0,0,0,0,0l-4.8,4.5l1.7,1.8c-1.5-0.6-8.2-0.6-9.7,0l1.7-1.8   L29.5,8.6C29.5,8.7,29.5,8.6,29.5,8.6z M33.7,17.9c0.5-0.2,2.2-0.2,3.8-0.2c1.6,0,3.1,0.1,3.5,0.2c1.2,0.6,12.3,9.2,13.7,20.3   c0.3,2.6-0.2,4.7-1.5,6.2c-2.4,2.7-6.9,2.8-6.9,2.8H28.5c-0.1,0-4.5-0.1-6.9-2.8c-1.3-1.5-1.8-3.6-1.5-6.2   C21.5,27.1,32.6,18.4,33.7,17.9z"/><path d="M36,43.2v1.2h3.2v-1.2c2.3-0.3,4-2.2,4-4.5v-2c0-1-0.4-2.4-2.5-3.7L40,32.6l0,0l-0.9-0.3v-5.6c0.5,0.2,0.9,0.7,0.9,1.3v1   h3.2v-1c0-2.3-1.8-4.3-4-4.5v-1.1H36v1.1c-2.4,0.1-4.4,2.1-4.4,4.6v2c0,1,0.4,2.4,2.4,3.7l0.9,0.3l0,0l1.1,0.4V40   c-0.7-0.1-1.2-0.7-1.2-1.4v-1h-3.2v1C31.6,41.1,33.6,43.1,36,43.2z M40,38.7c0,0.6-0.4,1.1-0.9,1.3v-4.3c0.6,0.4,0.9,0.8,0.9,0.9   V38.7z M34.8,27.9c0-0.7,0.5-1.3,1.2-1.4V31l-0.4-0.1c-0.6-0.4-0.8-0.7-0.8-0.9V27.9z"/><path d="M79.9,79.3c-0.1,0-0.2-0.1-0.3-0.1c-0.5-0.1-1.1,0.1-1.4,0.4c-0.3,0.3-0.5,0.7-0.5,1.1c0,0.2,0,0.4,0.1,0.6   c0.1,0.2,0.2,0.4,0.3,0.5c0.3,0.3,0.7,0.5,1.1,0.5c0.2,0,0.4,0,0.6-0.1c0.2-0.1,0.4-0.2,0.5-0.3c0.1-0.2,0.3-0.3,0.3-0.5   c0.1-0.2,0.1-0.4,0.1-0.6c0-0.4-0.2-0.8-0.5-1.1c-0.1-0.1-0.2-0.1-0.2-0.2C80.1,79.4,80,79.4,79.9,79.3z"/><path d="M73.9,59H87v-3.2H73.9v-3.7h-3.2v3.7h-8.5v4.9h-1.9l-7.8-6.9H30.3l-0.2,2.3c0,1.6,0.5,3.2,1.4,4.6h-0.7l-5-7.7   c-1.7-3.3-5.4-5.9-9.2-4.6L14.8,49c-0.1,0-0.2,0.1-0.3,0.1l-1.6,0.7l0.8,1.4c-2.8-1.2-6.1-1.1-8.3,1.1L4,53.7   C4,53.8,3.9,53.8,3.8,54l-1.1,1.3l19.6,13.5l29,10.8h10.9v3.3h8.5v6.7h18.9v-3.2H73.9V59z M17.6,51.4c2.1-0.7,4.4,1.1,5.4,3.2   l2.1,3.2l-6.4-3.7l0.1-0.1l-1.4-2.5L17.6,51.4z M51.9,76.4L23.9,66L7.5,54.7l0.1-0.1c1.6-1.6,4.4-1,6.3,0.4l15.6,9h6.9   c0.1,0,0.3,0,0.4,0l11.3,0v-3.2H36.5c-1.6-0.3-2.9-2.1-3.2-3.7h18l7.8,6.9h3.1v12.5H51.9z M65.4,79.7V59h5.3v20.7H65.4z"/></g></svg>
